<?xml version="1.0" encoding="utf-8"?>
<!-- Uploaded to: SVG Repo, www.svgrepo.com, Generator: SVG Repo Mixer Tools -->
<svg width="800px" height="800px" viewBox="0 0 1024 1024" class="icon"  version="1.1" xmlns="http://www.w3.org/2000/svg"><path d="M853.333333 21.333333H170.666667a85.333333 85.333333 0 0 0-85.333334 85.333334v810.666666a85.333333 85.333333 0 0 0 85.333334 85.333334h682.666666a85.333333 85.333333 0 0 0 85.333334-85.333334V490.666667a21.333333 21.333333 0 0 0-42.666667 0v426.666666a42.666667 42.666667 0 0 1-42.666667 42.666667H170.666667a42.666667 42.666667 0 0 1-42.666667-42.666667V106.666667a42.666667 42.666667 0 0 1 42.666667-42.666667h682.666666a42.666667 42.666667 0 0 1 42.666667 42.666667v42.666666a21.333333 21.333333 0 0 0 42.666667 0V106.666667a85.333333 85.333333 0 0 0-85.333334-85.333334z" fill="#231815" /><path d="M917.333333 298.666667a21.333333 21.333333 0 0 0-21.333333 21.333333v85.333333a21.333333 21.333333 0 0 0 42.666667 0v-85.333333a21.333333 21.333333 0 0 0-21.333334-21.333333zM902.186667 219.52a21.333333 21.333333 0 1 0 30.293333 0 21.333333 21.333333 0 0 0-30.293333 0zM810.666667 234.666667a85.333333 85.333333 0 0 0-85.333334-85.333334H298.666667a85.333333 85.333333 0 0 0-85.333334 85.333334v170.666666a85.333333 85.333333 0 0 0 85.333334 85.333334h426.666666a85.333333 85.333333 0 0 0 85.333334-85.333334z m-42.666667 170.666666a42.666667 42.666667 0 0 1-42.666667 42.666667H298.666667a42.666667 42.666667 0 0 1-42.666667-42.666667v-170.666666a42.666667 42.666667 0 0 1 42.666667-42.666667h426.666666a42.666667 42.666667 0 0 1 42.666667 42.666667zM213.333333 725.333333a149.333333 149.333333 0 1 0 149.333334-149.333333 149.333333 149.333333 0 0 0-149.333334 149.333333z m256 0a106.666667 106.666667 0 1 1-106.666666-106.666666 106.666667 106.666667 0 0 1 106.666666 106.666666z" fill="#231815" /><path d="M341.333333 661.333333v42.666667h-42.666666a21.333333 21.333333 0 0 0 0 42.666667h42.666666v42.666666a21.333333 21.333333 0 0 0 42.666667 0v-42.666666h42.666667a21.333333 21.333333 0 0 0 0-42.666667h-42.666667v-42.666667a21.333333 21.333333 0 0 0-42.666667 0zM810.666667 640a64 64 0 1 0-64 64 64 64 0 0 0 64-64z m-85.333334 0a21.333333 21.333333 0 1 1 21.333334 21.333333 21.333333 21.333333 0 0 1-21.333334-21.333333zM597.333333 810.666667a64 64 0 1 0 64-64 64 64 0 0 0-64 64z m85.333334 0a21.333333 21.333333 0 1 1-21.333334-21.333334 21.333333 21.333333 0 0 1 21.333334 21.333334z" fill="#231815" /></svg>